<svg xmlns="http://www.w3.org/2000/svg" xmlns:xlink="http://www.w3.org/1999/xlink" viewBox="0 0 204.441 218.176">
  <defs>
    <style>
      .cls-1 {
        fill: #f2b1b5;
      }

      .cls-2 {
        fill: url(#linear-gradient);
      }

      .cls-3 {
        fill: #48486a;
      }

      .cls-4 {
        fill: url(#linear-gradient-2);
      }

      .cls-5 {
        fill: #fff;
      }

      .cls-6 {
        fill: url(#linear-gradient-3);
      }

      .cls-7 {
        fill: url(#linear-gradient-4);
      }

      .cls-8 {
        fill: url(#linear-gradient-5);
      }

      .cls-9 {
        fill: url(#linear-gradient-6);
      }

      .cls-10 {
        fill: #f6f8fb;
      }

      .cls-11 {
        fill: url(#linear-gradient-7);
      }

      .cls-12 {
        fill: url(#linear-gradient-8);
      }

      .cls-13 {
        fill: #5c629e;
      }

      .cls-14 {
        fill: url(#linear-gradient-9);
      }

      .cls-15 {
        fill: url(#linear-gradient-10);
      }

      .cls-16 {
        fill: url(#linear-gradient-11);
      }

      .cls-17 {
        filter: url(#XMLID_21_);
      }
    </style>
    <linearGradient id="linear-gradient" x1="0.004" y1="0.497" x2="1.001" y2="0.497" gradientUnits="objectBoundingBox">
      <stop offset="0" stop-color="#ffc107"/>
      <stop offset="0.92" stop-color="#ff9800"/>
    </linearGradient>
    <linearGradient id="linear-gradient-2" x1="0.002" y1="0.501" x2="1" y2="0.501" xlink:href="#linear-gradient"/>
    <linearGradient id="linear-gradient-3" x1="-0.021" y1="0.173" x2="1.045" y2="0.778" gradientUnits="objectBoundingBox">
      <stop offset="0" stop-color="#f2f4fa"/>
      <stop offset="0.922" stop-color="#d6dcee"/>
      <stop offset="1" stop-color="#d3daed"/>
    </linearGradient>
    <linearGradient id="linear-gradient-4" y1="0.5" x2="1" y2="0.5" gradientUnits="objectBoundingBox">
      <stop offset="0" stop-color="#5c629e"/>
      <stop offset="0.996" stop-color="#48486a"/>
    </linearGradient>
    <filter id="XMLID_21_" x="0" y="119.99" width="204.441" height="98.186" filterUnits="userSpaceOnUse">
      <feOffset dy="3" input="SourceAlpha"/>
      <feGaussianBlur stdDeviation="3" result="blur"/>
      <feFlood flood-opacity="0.161"/>
      <feComposite operator="in" in2="blur"/>
      <feComposite in="SourceGraphic"/>
    </filter>
    <linearGradient id="linear-gradient-5" x1="0" y1="0.501" x2="1" y2="0.501" xlink:href="#linear-gradient"/>
    <linearGradient id="linear-gradient-6" x1="0" y1="0.5" x2="0.999" y2="0.5" xlink:href="#linear-gradient-4"/>
    <linearGradient id="linear-gradient-7" x1="-0.001" y1="0.501" x2="1.001" y2="0.501" gradientUnits="objectBoundingBox">
      <stop offset="0" stop-color="#d3daed"/>
      <stop offset="0.996" stop-color="#99a7d8"/>
    </linearGradient>
    <linearGradient id="linear-gradient-8" x1="-0.001" y1="0.5" x2="1.001" y2="0.5" xlink:href="#linear-gradient-4"/>
    <linearGradient id="linear-gradient-9" x1="0.001" y1="0.5" x2="1.002" y2="0.5" xlink:href="#linear-gradient-7"/>
    <linearGradient id="linear-gradient-10" x1="-0.002" y1="0.501" x2="0.995" y2="0.501" xlink:href="#linear-gradient-4"/>
    <linearGradient id="linear-gradient-11" x1="-0.004" y1="0.503" x2="0.992" y2="0.503" xlink:href="#linear-gradient"/>
  </defs>
  <g id="XMLID_1_" transform="translate(8.954)">
    <g id="XMLID_35_" transform="translate(108.19 32.726)">
      <path id="XMLID_36_" class="cls-1" d="M73.475,64.058a3.232,3.232,0,0,1-2.749-1.466L61.562,47.563a16.8,16.8,0,0,1,1.283-19.611l7.331-8.981a3.225,3.225,0,0,1,4.582-.55A3.4,3.4,0,0,1,75.308,23l-7.331,8.981a10.77,10.77,0,0,0-.733,12.28l9.347,15.029a3.1,3.1,0,0,1-1.1,4.4A7.8,7.8,0,0,1,73.475,64.058Z" transform="translate(-59.005 -17.714)"/>
    </g>
    <g id="XMLID_34_" transform="translate(111.189 32.408)">
      <path id="Path_2381" data-name="Path 2381" class="cls-2" d="M64.415,33.045a4.031,4.031,0,0,1-2.383-.733,3.575,3.575,0,0,1-.55-5.132l6.781-8.248a3.65,3.65,0,0,1,5.682,4.582l-6.781,8.248A3.3,3.3,0,0,1,64.415,33.045Z" transform="translate(-60.641 -17.541)"/>
    </g>
    <g id="XMLID_32_" transform="translate(117.346 68.062)">
      <path id="XMLID_33_" class="cls-3" d="M71.148,124.064c-2.383,0-4.582.55-4.765-2.016L64,83.192,66.383,41.4a4.7,4.7,0,0,1,4.949-4.4c2.566.183,10.63,2.383,10.447,4.949L74.63,83.009l1.283,38.306c.183,2.566-1.65,2.566-4.4,2.749Z" transform="translate(-64 -36.994)"/>
    </g>
    <g id="XMLID_30_" transform="translate(128.526 74.398)">
      <path id="XMLID_31_" class="cls-3" d="M81.647,128.516c-2.566,0-4.765.183-4.765-2.383L70.1,41.641c0-2.566,8.981-.183,11.547-.183a4.852,4.852,0,0,1,4.765,4.765v79.911C86.412,128.883,84.213,128.516,81.647,128.516Z" transform="translate(-70.1 -40.451)"/>
    </g>
    <path id="XMLID_29_" class="cls-4" d="M76.48,14.269l2.933,1.65c9.531,5.5,14.479,12.646,13.746,23.643-.733,12.646.183,38.123.183,38.123A67.113,67.113,0,0,1,64.2,70.537c2.566-16.129.183-26.942.183-37.756S69.515,10.237,76.48,14.269Z" transform="translate(53.512 11.466)"/>
    <path id="XMLID_28_" class="cls-1" d="M71.816,24.014h2.566A2.034,2.034,0,0,0,76.4,22V13.2H69.8V22A2.034,2.034,0,0,0,71.816,24.014Z" transform="translate(58.176 11.252)"/>
    <path id="XMLID_27_" class="cls-5" d="M75.565,15l1.833.916L74.649,31.5,70.8,22.331Z" transform="translate(59.009 12.751)"/>
    <path id="XMLID_26_" class="cls-5" d="M73.715,23.5l-1.833-9.9h-.916L67.3,26.613Z" transform="translate(56.094 11.585)"/>
    <path id="XMLID_25_" class="cls-1" d="M76.08,24.577l7.148-1.466a3.114,3.114,0,0,0,2.383-3.666L82.128,2.4,63.8,6.066l2.383,12.1A8.744,8.744,0,0,0,76.08,24.577Z" transform="translate(53.179 2.258)"/>
    <path id="XMLID_24_" class="cls-3" d="M77.184,11.3a5.5,5.5,0,0,1,2.932,3.482,2.78,2.78,0,0,1-.55,2.383,1.869,1.869,0,0,0-.367,1.65.18.18,0,0,0,.183.183h.183a1.869,1.869,0,0,0,1.466-.916c.55-.733,1.283-1.466,2.2-.55s.367,1.833,0,2.566c-.367,1.1-.916,3.3.183,4.215.916.733,2.932-.183,3.849-.733.183,0,.183-.183.367-.183,2.566-2.016,2.2-5.865,2.566-8.614.367-2.2-.183-4.215-.55-6.415S89.463,4.333,87.814,2.5C86.348.851,83.6.484,82.132,1.767A5.875,5.875,0,0,0,78.467-.066a16.612,16.612,0,0,0-4.215.183A13.051,13.051,0,0,0,67.47,2.867a15.8,15.8,0,0,0-3.116,2.749,2.819,2.819,0,0,0-.55,3.116,33.04,33.04,0,0,0,1.466,3.849.673.673,0,0,0,.183-.55c.367-1.283.367-2.2,1.283-3.116s1.65-.733,2.749-.367c.367.183.733.183.916.55.733.55.55,1.466,1.283,2.016a3.485,3.485,0,0,0,2.383.183c.733,0,1.65-.183,2.383-.183C76.634,11.115,77,11.3,77.184,11.3Z" transform="translate(52.992 0.141)"/>
    <path id="XMLID_23_" class="cls-3" d="M80.326,10.4a1.652,1.652,0,0,0-1.1-1.1,1.98,1.98,0,0,0-1.283.55c-.183,0-.183.183-.367.183-1.283.916-2.932,2.016-4.4,1.466-2.016-.55-3.666-1.283-5.682-.733a4.529,4.529,0,0,0-1.65.733c-.916.916-.55,2.383.183,3.482a8.755,8.755,0,0,0,6.781,3.666,7.021,7.021,0,0,0,5.132-1.283c1.65-1.283,2.2-3.482,2.566-5.5C80.326,11.5,80.51,10.95,80.326,10.4Z" transform="translate(54.431 8.004)"/>
    <path id="XMLID_22_" class="cls-6" d="M186.4,131.509h0V84.956L0,47.2V94.12H.183c.183.55.733.916,1.283,1.466l120.782,70.2a8.558,8.558,0,0,0,7.331,0l55.351-31.891C186.214,133.159,186.58,132.243,186.4,131.509Z" transform="translate(0.046 39.568)"/>
    <g class="cls-17" transform="matrix(1, 0, 0, 1, -8.95, 0)">
      <path id="XMLID_21_2" data-name="XMLID_21_" class="cls-7" d="M184.931,108.372,129.58,140.263a8.558,8.558,0,0,1-7.331,0L1.466,70.066A2.451,2.451,0,0,1,.183,68.6H0v7.7H.183c.183.55.733.916,1.283,1.466l120.782,70.2a8.558,8.558,0,0,0,7.331,0l55.351-31.891c1.1-.733,1.65-1.65,1.466-2.383h0v-7.7h0C186.58,106.723,186.214,107.639,184.931,108.372Z" transform="translate(9 57.39)"/>
    </g>
    <path id="XMLID_20_" class="cls-8" d="M184.931,99.872l-55.168,31.891a8.558,8.558,0,0,1-7.331,0L1.466,61.566A2.451,2.451,0,0,1,.183,60.1H0v7.7H.183c.183.55.733.916,1.283,1.466l120.782,70.2a8.558,8.558,0,0,0,7.331,0l55.351-31.891c1.1-.733,1.65-1.65,1.466-2.383h0v-7.7h0A2.061,2.061,0,0,1,184.931,99.872Z" transform="translate(0.046 50.311)"/>
    <path id="XMLID_19_" class="cls-9" d="M184.931,91.472l-55.168,31.891a8.558,8.558,0,0,1-7.331,0L1.466,53.166A2.451,2.451,0,0,1,.183,51.7H0v7.7H.183c.183.55.733.916,1.283,1.466l120.966,70.2a8.558,8.558,0,0,0,7.331,0L185.114,99.17c1.1-.733,1.65-1.65,1.466-2.383h0V88.906h0A2.814,2.814,0,0,1,184.931,91.472Z" transform="translate(0.046 43.316)"/>
    <path id="XMLID_18_" class="cls-10" d="M56.288,28.875a8.558,8.558,0,0,1,7.331,0l121.332,70.38c2.016,1.1,2.016,3.116,0,4.215l-55.168,31.708a8.558,8.558,0,0,1-7.331,0L1.487,64.981c-2.016-1.1-2.016-3.116,0-4.215Z" transform="translate(0.025 23.62)"/>
    <g id="XMLID_14_" transform="translate(67.677 79.254)">
      <path id="XMLID_17_" class="cls-11" d="M80.788,84.822l25.476-11.73a3.543,3.543,0,0,0,0-6.232L67.592,44.5,39,61.545Z" transform="translate(-35.151 -41.934)"/>
      <path id="XMLID_16_" class="cls-12" d="M82.537,84.888l25.476-11.73a3.543,3.543,0,0,0,0-6.232L67.691,43.65a4.67,4.67,0,0,0-4.4,0L36.9,59.412Z" transform="translate(-36.9 -43.1)"/>
      <path id="XMLID_15_" class="cls-13" d="M77.139,80.94l22.177-9.9a3.024,3.024,0,0,0,0-5.315L63.943,45.2,39.2,59.863Z" transform="translate(-34.985 -41.351)"/>
    </g>
    <g id="XMLID_10_" transform="translate(63.461 65.798)">
      <path id="XMLID_13_" class="cls-14" d="M34.8,36.018l.55-.183a2.588,2.588,0,0,1,1.65.183l42.155,24.01a4.276,4.276,0,0,1,1.833,3.116L84.653,92.1a1.389,1.389,0,0,1-.367.733l-.55.367L40.482,68.092a4.276,4.276,0,0,1-1.833-3.116Z" transform="translate(-34.433 -35.759)"/>
      <path id="XMLID_12_" class="cls-15" d="M34.6,37.1c0-1.1.733-1.65,1.833-1.1l42.521,24.56a4.276,4.276,0,0,1,1.833,3.116L84.819,91.9c0,1.1-.733,1.65-1.833,1.1L40.1,68.622a4.276,4.276,0,0,1-1.833-3.116Z" transform="translate(-34.6 -35.739)"/>
      <path id="XMLID_11_" class="cls-13" d="M47.231,50.264a7.339,7.339,0,0,1,4.215,4.765c.55,2.016-.367,3.3-2.016,2.566a7.339,7.339,0,0,1-4.215-4.765C44.482,50.814,45.4,49.714,47.231,50.264Z" transform="translate(-25.97 -23.796)"/>
    </g>
    <g id="XMLID_8_" transform="translate(120.628 26.818)">
      <path id="XMLID_9_" class="cls-1" d="M74.056,54.1h0a5.115,5.115,0,0,1-4.949-4.4l-3.3-31.708a3.219,3.219,0,0,1,6.415-.55l2.749,26.942,7.7-15.029a3.279,3.279,0,0,1,5.865,2.933l-9.9,19.428A6.3,6.3,0,0,1,74.056,54.1Z" transform="translate(-65.79 -14.49)"/>
    </g>
    <g id="XMLID_7_" transform="translate(132.775 39.148)">
      <path id="Path_2382" data-name="Path 2382" class="cls-16" d="M76.051,36.031a5.352,5.352,0,0,1-1.65-.367,3.466,3.466,0,0,1-1.466-4.949L76.784,23.2A3.65,3.65,0,1,1,83.2,26.683L79.35,34.2A4.1,4.1,0,0,1,76.051,36.031Z" transform="translate(-72.418 -21.218)"/>
    </g>
    <path id="XMLID_6_" class="cls-1" d="M69.816,19.948h0c-.367,0-.916-.183-.916-.733l-1.1-6.6c0-.367.183-.916.733-.916h0c.367,0,.916.183.916.733l1.1,6.6A1.218,1.218,0,0,1,69.816,19.948Z" transform="translate(56.511 10.003)"/>
    <path id="XMLID_5_" class="cls-1" d="M69,21.347h0a.881.881,0,0,1-.367-1.1L71.2,14.2a.881.881,0,0,1,1.1-.367h0a.881.881,0,0,1,.367,1.1L70.1,20.981C69.916,21.164,69.366,21.53,69,21.347Z" transform="translate(57.144 11.719)"/>
    <path id="XMLID_4_" class="cls-1" d="M69.116,21.248h0c-.367,0-.916-.183-.916-.733l-1.1-6.6c0-.367.183-.916.733-.916h0c.367,0,.916.183.916.733l1.1,6.6C70.033,20.7,69.666,21.064,69.116,21.248Z" transform="translate(55.928 11.086)"/>
    <path id="XMLID_3_" class="cls-1" d="M68.416,21.848h0c-.367,0-.916-.183-.916-.733l-1.1-6.6c0-.367.183-.916.733-.916h0c.367,0,.916.183.916.733l1.1,6.6C69.149,21.481,68.966,21.848,68.416,21.848Z" transform="translate(55.345 11.585)"/>
    <path id="XMLID_2_" class="cls-1" d="M67.616,22.348h0c-.367,0-.916-.183-.916-.733l-1.1-6.6c0-.367.183-.916.733-.916h0c.367,0,.916.183.916.733l1.1,6.6A.839.839,0,0,1,67.616,22.348Z" transform="translate(54.678 12.002)"/>
  </g>
</svg>
